<?xml version="1.0" encoding="iso-8859-1"?>
<!-- Generator: Adobe Illustrator 19.0.0, SVG Export Plug-In . SVG Version: 6.00 Build 0)  -->
<svg version="1.1" id="Layer_1" xmlns="http://www.w3.org/2000/svg" xmlns:xlink="http://www.w3.org/1999/xlink" x="0px" y="0px"
	 viewBox="0 0 512 512" style="enable-background:new 0 0 512 512;" xml:space="preserve">
<g>
	<g>
		<path d="M467.178,235.384c-5.31-5.223-12.343-8.106-19.721-8.007h-33.434l-35.082-90.66h-34.05l10.789,90.66H318.11
			l-18.378-14.114h-35.373l13.885,42.471l-14.355,44.378l35.78-0.286l18.093-16.687h38.528l-9.484,92.059l34.028-0.273
			l33.838-91.786h33.173c15.373-0.124,27.78-12.732,27.657-28.104C475.442,247.586,472.486,240.607,467.178,235.384z
			 M368.52,151.924l29.196,75.453h-26.72l-8.98-75.453H368.52z M370.2,359.801l-6.525,0.053l7.902-76.716h26.885L370.2,359.801z
			 M447.782,267.93H311.819l-18.144,16.735l-8.829,0.07l9.39-29.028l-8.905-27.236h9.235l18.378,14.114h134.573
			c0.035-0.001,0.069-0.001,0.104-0.001c3.346,0,6.498,1.291,8.886,3.641c2.413,2.374,3.756,5.547,3.784,8.931
			C460.349,262.143,454.709,267.873,447.782,267.93z"/>
	</g>
</g>
<g>
	<g>
		<rect x="180.082" y="248.396" width="15.208" height="15.208"/>
	</g>
</g>
<g>
	<g>
		<rect x="210.498" y="248.396" width="15.208" height="15.208"/>
	</g>
</g>
<g>
	<g>
		<rect x="240.914" y="248.396" width="15.208" height="15.208"/>
	</g>
</g>
<g>
	<g>
		<path d="M473.98,100.372H38.02c-20.965,0-38.02,17.055-38.02,38.02v52.522l4.662,1.957c25.5,10.701,41.976,35.481,41.976,63.129
			s-16.476,52.428-41.976,63.13L0,321.086v52.522c0,20.965,17.055,38.02,38.02,38.02h435.96c20.965,0,38.02-17.055,38.02-38.02
			V138.392C512,117.427,494.945,100.372,473.98,100.372z M496.792,373.608c0,12.578-10.233,22.812-22.812,22.812H38.02
			c-12.579,0-22.812-10.234-22.812-22.812v-42.579c28.495-14.04,46.638-42.955,46.638-75.029s-18.143-60.989-46.638-75.029v-42.579
			c0-12.578,10.233-22.812,22.812-22.812h435.96c12.579,0,22.812,10.234,22.812,22.812V373.608z"/>
	</g>
</g>
<g>
	<g>
		<rect x="82.63" y="136.871" width="62.859" height="15.208"/>
	</g>
</g>
<g>
	<g>
		<rect x="82.63" y="169.021" width="62.859" height="15.208"/>
	</g>
</g>
<g>
	<g>
		<rect x="82.63" y="201.181" width="62.859" height="15.208"/>
	</g>
</g>
<g>
	<g>
		<rect x="82.63" y="233.33" width="62.859" height="15.208"/>
	</g>
</g>
<g>
	<g>
		<rect x="82.63" y="265.49" width="62.859" height="15.208"/>
	</g>
</g>
<g>
	<g>
		<rect x="82.63" y="297.639" width="62.859" height="15.208"/>
	</g>
</g>
<g>
	<g>
		<rect x="82.63" y="329.799" width="62.859" height="15.208"/>
	</g>
</g>
<g>
	<g>
		<rect x="82.63" y="361.949" width="62.859" height="15.208"/>
	</g>
</g>
<g>
</g>
<g>
</g>
<g>
</g>
<g>
</g>
<g>
</g>
<g>
</g>
<g>
</g>
<g>
</g>
<g>
</g>
<g>
</g>
<g>
</g>
<g>
</g>
<g>
</g>
<g>
</g>
<g>
</g>
</svg>
